<?xml version="1.0" encoding="UTF-8" standalone="no"?>
        <svg 
    viewBox="3.1494140625 -85.07080078125 446.1181640625 57.23876953125"
    width="442.96875"
    height="142.3095703125"
   xmlns="http://www.w3.org/2000/svg"
   xmlns:svg="http://www.w3.org/2000/svg">
   <path d="M31.64-54.42L30.32-58.67L94.34-58.67L104.37-68.55L121.66-52.37Q120.04-50.76 115.65-50.54L115.65-50.54Q110.82-48.19 103.78-45.89Q96.75-43.58 90.16-41.97L90.16-41.97Q89.58-39.70 85.47-38.96L85.47-38.96L85.47-30.32L117.77-30.32L128.10-43.95Q128.10-43.95 130.00-42.44Q131.91-40.94 134.88-38.60Q137.84-36.25 141.10-33.54Q144.36-30.83 147.00-28.49L147.00-28.49Q146.34-26.07 142.68-26.07L142.68-26.07L85.47-26.07L85.47-9.16Q85.47-2.20 83.72 2.64Q81.96 7.47 76.32 10.25Q70.68 13.04 59.11 13.92L59.11 13.92Q58.74 9.08 58.01 5.64Q57.28 2.20 55.37-0.15L55.37-0.15Q53.54-2.27 50.83-3.92Q48.12-5.57 42.11-6.59L42.11-6.59L42.11-8.57Q42.11-8.57 44.60-8.39Q47.09-8.20 50.54-8.02Q53.98-7.84 57.02-7.65Q60.06-7.47 61.23-7.47L61.23-7.47Q63.72-7.47 63.72-9.74L63.72-9.74L63.72-26.07L4.98-26.07L3.74-30.32L63.72-30.32L63.72-44.82L84.16-43.21Q86.50-45.70 88.95-48.67Q91.41-51.64 93.31-54.42L93.31-54.42L31.64-54.42ZM63.72-105.76L63.72-128.39L90.89-126.12Q90.82-124.58 89.72-123.49Q88.62-122.39 85.47-121.80L85.47-121.80L85.47-105.76L115.36-105.76L125.83-119.38Q125.83-119.38 127.77-117.88Q129.71-116.38 132.68-114.04Q135.64-111.69 138.94-109.02Q142.24-106.35 144.87-103.93L144.87-103.93Q144.21-101.51 140.55-101.51L140.55-101.51L91.48-101.51Q97.85-95.43 107.12-91.04Q116.38-86.65 126.71-83.75Q137.04-80.86 146.56-79.17L146.56-79.17L146.26-77.56Q140.26-75.88 136.34-70.86Q132.42-65.84 130.66-58.08L130.66-58.08Q116.02-65.33 105.03-75.81Q94.04-86.28 87.60-101.51L87.60-101.51L85.47-101.51L85.47-68.70Q85.47-68.04 82.76-66.91Q80.05-65.77 75.92-64.82Q71.78-63.87 67.53-63.87L67.53-63.87L63.72-63.87L63.72-85.77Q52.51-76.03 37.32-68.63Q22.12-61.23 4.17-56.25L4.17-56.25L3.15-57.93Q18.82-65.92 31.20-77.67Q43.58-89.43 51.12-101.51L51.12-101.51L6.74-101.51L5.57-105.76L63.72-105.76ZM213.43-92.29L213.43-124.95L241.48-122.83Q241.26-121.29 240.20-120.19Q239.14-119.09 235.99-118.65L235.99-118.65L235.99-92.29L252.61-92.29L265.21-103.93L284.69-86.43Q283.89-85.03 282.50-84.56Q281.10-84.08 278.10-83.86L278.10-83.86Q269.31-70.24 256.38-58.37Q243.46-46.51 227.09-37.10Q210.72-27.69 191.67-21.61L191.67-21.61Q197.17-16.63 204.71-14.21Q212.26-11.79 222.66-10.99Q233.06-10.18 247.05-10.18L247.05-10.18Q251.15-10.18 257.63-10.18Q264.11-10.18 271.40-10.22Q278.69-10.25 285.31-10.33Q291.94-10.40 296.41-10.47L296.41-10.47L296.41-8.86Q290.99-7.40 288.43-2.20Q285.86 3.00 285.72 9.45L285.72 9.45Q282.57 9.45 277.37 9.45Q272.17 9.45 266.27 9.45Q260.38 9.45 255.10 9.45Q249.83 9.45 246.61 9.45L246.61 9.45Q229.17 9.45 217.27 6.45Q205.37 3.44 197.61-4.39Q189.84-12.23 184.94-26.73L184.94-26.73Q183.11-22.27 180.62-16.70Q178.13-11.13 175.67-5.86Q173.22-0.59 171.46 2.86L171.46 2.86Q172.56 4.76 172.27 6.48Q171.97 8.20 170.73 9.30L170.73 9.30L156.01-7.62Q159.52-10.11 164.32-13.84Q169.12-17.58 173.84-21.61Q178.56-25.63 181.93-28.93L181.93-28.93L183.62-41.67L193.51-39.33L185.67-28.49Q186.69-27.03 187.72-25.78Q188.75-24.54 189.77-23.36L189.77-23.36Q202.59-31.42 214.60-41.93Q226.61-52.44 236.46-64.23Q246.31-76.03 252.61-88.04L252.61-88.04L166.63-88.04L165.31-92.29L213.43-92.29ZM324.61 1.46L324.61-78.00L353.54-75.59Q353.32-74.05 352.22-72.91Q351.12-71.78 347.97-71.26L347.97-71.26L347.97 1.46L366.28 1.46L366.28-108.18L313.48-108.18L312.30-112.35L405.91-112.35L418.07-127.81Q418.07-127.81 420.26-126.12Q422.46-124.44 425.90-121.77Q429.35-119.09 433.12-116.13Q436.89-113.16 439.97-110.52L439.97-110.52Q439.31-108.18 435.57-108.18L435.57-108.18L390.01-108.18L390.01-59.40L402.47-59.40L414.18-74.56Q414.18-74.56 416.31-72.91Q418.43-71.26 421.73-68.66Q425.02-66.06 428.69-63.13Q432.35-60.21 435.28-57.57L435.28-57.57Q434.62-55.22 430.81-55.22L430.81-55.22L390.01-55.22L390.01 1.46L411.33 1.46L423.78-14.28Q423.78-14.28 426.01-12.56Q428.25-10.84 431.76-8.13Q435.28-5.42 439.12-2.38Q442.97 0.66 446.12 3.30L446.12 3.30Q445.46 5.71 441.58 5.71L441.58 5.71L304.98 5.71L303.74 1.46L324.61 1.46Z"/>
    </svg>
        