<svg width="190" height="190" version="1.1" xmlns="http://www.w3.org/2000/svg" xmlns:xlink="http://www.w3.org/1999/xlink"><path d="M86.64 23.98L86.64 23.98Q85.88 25.69 84.36 26.45L84.36 26.45Q79.99 26.45 77.33 24.55L77.33 24.55Q62.89 13.91 58.14 8.97L58.14 8.97Q58.14 4.98 59.85 4.79L59.85 4.79Q66.88 4.79 77.90 8.59L77.90 8.59Q80.94 9.73 82.27 10.68L82.27 10.68Q86.64 13.72 86.64 23.98ZM169.48 127.91L170.24 128.67L169.86 129.62Q161.31 135.70 143.07 140.64L143.07 140.64L135.47 142.35Q128.25 143.11 104.50 128.29L104.50 128.29Q101.27 126.20 99.94 125.63L99.94 125.63Q75.05 111.76 58.14 105.87L58.14 105.87Q44.46 101.31 31.92 105.11L31.92 105.11L17.29 110.62Q16.15 111.00 14.82 111.00L14.82 111.00Q9.69 111.00 4.56 104.92L4.56 104.92Q4.56 103.21 5.32 102.07L5.32 102.07Q12.73 103.59 26.22 99.22L26.22 99.22Q33.44 97.13 37.05 96.37L37.05 96.37Q72.20 71.86 99.56 45.64L99.56 45.64Q99.56 44.50 98.80 43.93L98.80 43.93Q94.43 43.93 83.22 47.35L83.22 47.35Q82.27 47.54 81.70 47.73L81.70 47.73Q54.34 55.14 44.65 59.32L44.65 59.32Q41.61 60.65 38.76 62.17L38.76 62.17Q29.45 62.17 23.75 54.19L23.75 54.19Q23.94 50.01 35.15 49.82L35.15 49.82Q40.28 49.63 41.42 49.44L41.42 49.44Q68.78 45.64 94.24 36.33L94.24 36.33Q105.45 32.15 111.72 27.97L111.72 27.97Q116.66 27.97 124.26 32.91L124.26 32.91Q128.82 35.76 129.77 38.42L129.77 38.42Q130.15 38.99 130.15 39.56L130.15 39.56Q130.15 41.65 121.79 44.88L121.79 44.88L117.04 46.97L116.85 46.97L72.96 79.84Q60.23 89.15 47.12 96.18L47.12 96.18Q60.99 99.41 90.06 111.38L90.06 111.38Q116.66 122.40 132.05 125.44L132.05 125.44Q139.46 126.96 160.93 127.53L160.93 127.53Q165.87 127.72 169.48 127.91L169.48 127.91Z" stroke="#000" fill="black" /></svg>