<svg width="190" height="190" version="1.1" xmlns="http://www.w3.org/2000/svg" xmlns:xlink="http://www.w3.org/1999/xlink"><path d="M164.54 86.47L164.54 86.47L163.40 87.61Q149.15 91.22 133 91.22L133 91.22Q120.27 84.95 101.46 66.71L101.46 66.71L87.97 53.98L87.02 76.02Q86.26 84.19 84.17 84.19L84.17 84.19L83.22 83.81Q78.47 78.87 79.42 64.05L79.42 64.05Q79.80 58.35 79.80 56.64L79.80 56.64Q44.84 94.45 23.37 96.92L23.37 96.92L20.71 96.54Q20.14 96.35 19.57 95.97L19.57 95.97Q22.42 93.50 33.44 86.66L33.44 86.66Q34.96 85.71 36.10 84.95L36.10 84.95Q62.51 67.09 73.34 49.23L73.34 49.23Q71.44 49.23 59.47 51.32L59.47 51.32Q46.55 53.60 40.85 47.33L40.85 47.33Q40.47 47.14 40.09 46.76L40.09 46.76Q40.09 45.43 42.18 44.67L42.18 44.67L79.61 41.44L80.18 41.06L78.85 27.95Q78.09 24.34 76.57 21.49L76.57 21.49Q75.81 16.17 82.65 18.64L82.65 18.64Q89.11 21.11 93.10 25.29L93.10 25.29Q92.91 27.38 89.68 37.26L89.68 37.26L89.11 39.54Q91.96 39.35 106.02 36.31L106.02 36.31Q121.79 33.08 127.87 38.59L127.87 38.59Q128.25 38.78 128.44 39.16L128.44 39.16Q129.20 39.92 129.20 41.44L129.20 41.44L127.49 42.96Q103.55 44.48 88.92 46.76L88.92 46.76Q88.35 47.14 88.35 48.28L88.35 48.28Q105.45 62.34 119.32 69.94L119.32 69.94Q122.36 71.46 124.45 72.22L124.45 72.22L153.33 82.29Q163.21 85.52 163.78 85.90L163.78 85.90Q163.97 86.09 164.54 86.47ZM161.50 124.09L161.50 124.09Q159.41 125.80 155.99 125.80L155.99 125.80L127.11 125.04L126.92 125.04L92.34 126.18L93.48 153.16Q93.10 172.73 82.84 181.09L82.84 181.09Q81.13 181.09 78.28 178.05L78.28 178.05Q75.43 175.20 61.94 163.23L61.94 163.23Q60.80 162.28 59.85 161.33L59.85 161.33L59.85 160.95L79.99 162.47L80.18 162.47Q85.69 154.11 83.60 135.11L83.60 135.11Q83.03 130.36 82.08 126.56L82.08 126.56Q57.19 128.84 41.80 131.69L41.80 131.69L25.08 135.30Q24.13 135.30 23.37 135.49L23.37 135.49Q18.24 136.06 13.49 132.45L13.49 132.45Q11.78 131.31 10.26 129.60L10.26 129.60Q10.26 127.51 11.02 127.51L11.02 127.51L80.75 121.05Q80.37 118.20 75.81 114.21L75.81 114.21L73.15 111.74L73.15 107.56Q76.57 107.56 82.65 111.55L82.65 111.55Q83.60 112.12 84.36 112.50L84.36 112.50L96.71 95.97Q96.71 93.50 95 92.74L95 92.74Q82.46 94.45 63.65 101.86L63.65 101.86Q55.10 101.86 52.44 97.30L52.44 97.30Q51.87 96.35 51.87 95.21L51.87 95.21L52.25 94.64L53.20 94.07Q65.36 95.21 81.89 89.89L81.89 89.89L88.54 87.61L88.92 87.61L96.90 85.33Q97.28 85.33 97.47 85.33L97.47 85.33Q103.17 84.95 110.96 91.79L110.96 91.79Q112.10 92.74 113.24 94.07L113.24 94.07L113.43 96.54Q112.67 97.49 108.30 99.20L108.30 99.20L107.16 99.77Q97.85 104.33 87.02 113.83L87.02 113.83Q88.35 114.21 89.87 118.01L89.87 118.01Q91.39 121.43 94.62 119.53L94.62 119.53L139.46 113.07Q146.30 112.12 153.33 114.97L153.33 114.97Q160.55 117.82 161.50 122.76L161.50 122.76Q161.50 123.33 161.50 124.09Z" stroke="#000" fill="black" /></svg>