<svg width="190" height="190" version="1.1" xmlns="http://www.w3.org/2000/svg" xmlns:xlink="http://www.w3.org/1999/xlink"><path d="M165.30 110.81L165.30 110.81Q163.40 112.33 159.98 112.33L159.98 112.33L121.22 111.19L120.84 111.19Q86.83 111.19 53.20 115.75L53.20 115.75Q40.09 117.46 31.35 119.36L31.35 119.36L22.23 121.26Q18.43 121.64 13.11 118.22L13.11 118.22Q9.69 115.94 9.12 113.66L9.12 113.66Q9.31 111.95 11.59 111.95L11.59 111.95L49.78 109.10Q48.45 92.95 44.27 71.67L44.27 71.67Q43.32 66.92 37.24 55.14L37.24 55.14Q36.67 54.00 36.10 53.05L36.10 53.05Q35.72 46.59 45.60 51.34L45.60 51.34Q53.01 54.95 55.10 58.18L55.10 58.18Q56.24 83.07 58.52 107.77L58.52 107.77L82.27 106.06Q83.03 91.81 82.84 41.08L82.84 41.08Q82.65 38.04 82.65 35.38L82.65 35.38Q82.65 22.84 77.52 17.52L77.52 17.52Q63.46 20.56 55.10 17.33L55.10 17.33L50.92 15.05Q50.35 14.48 49.78 14.10L49.78 14.10L49.59 12.77L52.44 11.25Q80.37 8.21 111.53-0.34L111.53-0.34Q116.28-1.48 120.84-1.48L120.84-1.48Q128.44-1.48 132.62 3.08L132.62 3.08Q132.62 5.55 129.77 7.07L129.77 7.07Q127.30 8.40 99.94 13.53L99.94 13.53Q90.82 15.24 87.59 16.19L87.59 16.19Q94.05 19.42 94.81 24.17L94.81 24.17Q94.81 24.74 94.24 32.34L94.24 32.34Q94.05 35.38 94.05 50.20L94.05 50.20Q97.09 50.20 111.53 46.59L111.53 46.59Q127.87 42.60 133.38 47.54L133.38 47.54Q134.52 48.49 134.52 50.77L134.52 50.77Q132.81 55.14 106.97 57.61L106.97 57.61Q96.90 58.37 93.29 57.99L93.29 57.99L92.53 104.35Q99.37 105.11 129.96 100.17L129.96 100.17Q140.03 98.46 144.59 98.08L144.59 98.08Q149.15 97.70 157.70 101.69L157.70 101.69Q167.58 106.25 165.30 110.81Z" stroke="#000" fill="black" /></svg>